<mxfile host="app.diagrams.net" agent="Mozilla/5.0 (Windows NT 10.0; Win64; x64) AppleWebKit/537.36 (KHTML, like Gecko) Chrome/132.0.0.0 Safari/537.36 Edg/132.0.0.0" version="26.0.11">
  <diagram name="Page-1" id="HUE9M-mBR0wUrs-Ddx7M">
    <mxGraphModel dx="1303" dy="706" grid="1" gridSize="10" guides="1" tooltips="1" connect="1" arrows="1" fold="1" page="1" pageScale="1" pageWidth="2000" pageHeight="2000" math="0" shadow="0">
      <root>
        <mxCell id="0" />
        <mxCell id="1" parent="0" />
        <mxCell id="HzGM36VPH87erJFW9Gvq-1" value="User" style="html=1;dropTarget=0;whiteSpace=wrap;" parent="1" vertex="1">
          <mxGeometry x="1030" y="650" width="180" height="90" as="geometry" />
        </mxCell>
        <mxCell id="HzGM36VPH87erJFW9Gvq-2" value="" style="shape=module;jettyWidth=8;jettyHeight=4;" parent="HzGM36VPH87erJFW9Gvq-1" vertex="1">
          <mxGeometry x="1" width="20" height="20" relative="1" as="geometry">
            <mxPoint x="-27" y="7" as="offset" />
          </mxGeometry>
        </mxCell>
        <mxCell id="HzGM36VPH87erJFW9Gvq-3" value="Data aggregator" style="html=1;dropTarget=0;whiteSpace=wrap;" parent="1" vertex="1">
          <mxGeometry x="1030" y="220" width="180" height="90" as="geometry" />
        </mxCell>
        <mxCell id="HzGM36VPH87erJFW9Gvq-4" value="" style="shape=module;jettyWidth=8;jettyHeight=4;" parent="HzGM36VPH87erJFW9Gvq-3" vertex="1">
          <mxGeometry x="1" width="20" height="20" relative="1" as="geometry">
            <mxPoint x="-27" y="7" as="offset" />
          </mxGeometry>
        </mxCell>
        <mxCell id="HzGM36VPH87erJFW9Gvq-5" value="Database" style="html=1;dropTarget=0;whiteSpace=wrap;" parent="1" vertex="1">
          <mxGeometry x="1030" y="390" width="180" height="90" as="geometry" />
        </mxCell>
        <mxCell id="HzGM36VPH87erJFW9Gvq-6" value="" style="shape=module;jettyWidth=8;jettyHeight=4;" parent="HzGM36VPH87erJFW9Gvq-5" vertex="1">
          <mxGeometry x="1" width="20" height="20" relative="1" as="geometry">
            <mxPoint x="-27" y="7" as="offset" />
          </mxGeometry>
        </mxCell>
        <mxCell id="HzGM36VPH87erJFW9Gvq-7" value="Stock comparison graphs/dashboard" style="html=1;dropTarget=0;whiteSpace=wrap;" parent="1" vertex="1">
          <mxGeometry x="1300" y="400" width="180" height="90" as="geometry" />
        </mxCell>
        <mxCell id="HzGM36VPH87erJFW9Gvq-8" value="" style="shape=module;jettyWidth=8;jettyHeight=4;" parent="HzGM36VPH87erJFW9Gvq-7" vertex="1">
          <mxGeometry x="1" width="20" height="20" relative="1" as="geometry">
            <mxPoint x="-27" y="7" as="offset" />
          </mxGeometry>
        </mxCell>
        <mxCell id="HzGM36VPH87erJFW9Gvq-11" value="External API service" style="html=1;dropTarget=0;whiteSpace=wrap;" parent="1" vertex="1">
          <mxGeometry x="1300" y="220" width="180" height="90" as="geometry" />
        </mxCell>
        <mxCell id="HzGM36VPH87erJFW9Gvq-12" value="" style="shape=module;jettyWidth=8;jettyHeight=4;" parent="HzGM36VPH87erJFW9Gvq-11" vertex="1">
          <mxGeometry x="1" width="20" height="20" relative="1" as="geometry">
            <mxPoint x="-27" y="7" as="offset" />
          </mxGeometry>
        </mxCell>
        <mxCell id="HzGM36VPH87erJFW9Gvq-13" value="Portifolio" style="html=1;dropTarget=0;whiteSpace=wrap;" parent="1" vertex="1">
          <mxGeometry x="740" y="650" width="180" height="90" as="geometry" />
        </mxCell>
        <mxCell id="HzGM36VPH87erJFW9Gvq-14" value="" style="shape=module;jettyWidth=8;jettyHeight=4;" parent="HzGM36VPH87erJFW9Gvq-13" vertex="1">
          <mxGeometry x="1" width="20" height="20" relative="1" as="geometry">
            <mxPoint x="-27" y="7" as="offset" />
          </mxGeometry>
        </mxCell>
        <mxCell id="HzGM36VPH87erJFW9Gvq-15" value="Graphical component display/view" style="html=1;dropTarget=0;whiteSpace=wrap;" parent="1" vertex="1">
          <mxGeometry x="1300" y="650" width="180" height="90" as="geometry" />
        </mxCell>
        <mxCell id="HzGM36VPH87erJFW9Gvq-16" value="" style="shape=module;jettyWidth=8;jettyHeight=4;" parent="HzGM36VPH87erJFW9Gvq-15" vertex="1">
          <mxGeometry x="1" width="20" height="20" relative="1" as="geometry">
            <mxPoint x="-27" y="7" as="offset" />
          </mxGeometry>
        </mxCell>
        <mxCell id="SsmPXjv05fL6RJQO4NQC-6" value="" style="rounded=0;orthogonalLoop=1;jettySize=auto;html=1;endArrow=halfCircle;endFill=0;endSize=6;strokeWidth=1;sketch=0;exitX=0.5;exitY=0;exitDx=0;exitDy=0;" parent="1" source="HzGM36VPH87erJFW9Gvq-5" target="SsmPXjv05fL6RJQO4NQC-8" edge="1">
          <mxGeometry relative="1" as="geometry">
            <mxPoint x="1090" y="365" as="sourcePoint" />
          </mxGeometry>
        </mxCell>
        <mxCell id="SsmPXjv05fL6RJQO4NQC-7" value="" style="rounded=0;orthogonalLoop=1;jettySize=auto;html=1;endArrow=oval;endFill=0;sketch=0;sourcePerimeterSpacing=0;targetPerimeterSpacing=0;endSize=10;exitX=0.5;exitY=1;exitDx=0;exitDy=0;" parent="1" source="HzGM36VPH87erJFW9Gvq-3" target="SsmPXjv05fL6RJQO4NQC-8" edge="1">
          <mxGeometry relative="1" as="geometry">
            <mxPoint x="1100" y="300" as="sourcePoint" />
          </mxGeometry>
        </mxCell>
        <mxCell id="SsmPXjv05fL6RJQO4NQC-8" value="" style="ellipse;whiteSpace=wrap;html=1;align=center;aspect=fixed;fillColor=none;strokeColor=none;resizable=0;perimeter=centerPerimeter;rotatable=0;allowArrows=0;points=[];outlineConnect=1;" parent="1" vertex="1">
          <mxGeometry x="1115" y="350" width="10" height="10" as="geometry" />
        </mxCell>
        <mxCell id="SsmPXjv05fL6RJQO4NQC-9" value="" style="rounded=0;orthogonalLoop=1;jettySize=auto;html=1;endArrow=halfCircle;endFill=0;endSize=6;strokeWidth=1;sketch=0;exitX=1;exitY=0.5;exitDx=0;exitDy=0;" parent="1" source="HzGM36VPH87erJFW9Gvq-3" target="SsmPXjv05fL6RJQO4NQC-11" edge="1">
          <mxGeometry relative="1" as="geometry">
            <mxPoint x="1250" y="265" as="sourcePoint" />
          </mxGeometry>
        </mxCell>
        <mxCell id="SsmPXjv05fL6RJQO4NQC-10" value="" style="rounded=0;orthogonalLoop=1;jettySize=auto;html=1;endArrow=oval;endFill=0;sketch=0;sourcePerimeterSpacing=0;targetPerimeterSpacing=0;endSize=10;exitX=0;exitY=0.5;exitDx=0;exitDy=0;" parent="1" source="HzGM36VPH87erJFW9Gvq-11" target="SsmPXjv05fL6RJQO4NQC-11" edge="1">
          <mxGeometry relative="1" as="geometry">
            <mxPoint x="1260" y="230" as="sourcePoint" />
          </mxGeometry>
        </mxCell>
        <mxCell id="SsmPXjv05fL6RJQO4NQC-11" value="" style="ellipse;whiteSpace=wrap;html=1;align=center;aspect=fixed;fillColor=none;strokeColor=none;resizable=0;perimeter=centerPerimeter;rotatable=0;allowArrows=0;points=[];outlineConnect=1;" parent="1" vertex="1">
          <mxGeometry x="1250" y="260" width="10" height="10" as="geometry" />
        </mxCell>
        <mxCell id="SsmPXjv05fL6RJQO4NQC-15" value="" style="rounded=0;orthogonalLoop=1;jettySize=auto;html=1;endArrow=halfCircle;endFill=0;endSize=6;strokeWidth=1;sketch=0;" parent="1" source="HzGM36VPH87erJFW9Gvq-15" target="SsmPXjv05fL6RJQO4NQC-17" edge="1">
          <mxGeometry relative="1" as="geometry">
            <mxPoint x="1425" y="595" as="sourcePoint" />
          </mxGeometry>
        </mxCell>
        <mxCell id="SsmPXjv05fL6RJQO4NQC-16" value="" style="rounded=0;orthogonalLoop=1;jettySize=auto;html=1;endArrow=oval;endFill=0;sketch=0;sourcePerimeterSpacing=0;targetPerimeterSpacing=0;endSize=10;exitX=0.5;exitY=1;exitDx=0;exitDy=0;" parent="1" source="HzGM36VPH87erJFW9Gvq-7" target="SsmPXjv05fL6RJQO4NQC-17" edge="1">
          <mxGeometry relative="1" as="geometry">
            <mxPoint x="1460" y="615" as="sourcePoint" />
          </mxGeometry>
        </mxCell>
        <mxCell id="SsmPXjv05fL6RJQO4NQC-17" value="" style="ellipse;whiteSpace=wrap;html=1;align=center;aspect=fixed;fillColor=none;strokeColor=none;resizable=0;perimeter=centerPerimeter;rotatable=0;allowArrows=0;points=[];outlineConnect=1;" parent="1" vertex="1">
          <mxGeometry x="1385" y="610" width="10" height="10" as="geometry" />
        </mxCell>
        <mxCell id="SsmPXjv05fL6RJQO4NQC-18" value="" style="rounded=0;orthogonalLoop=1;jettySize=auto;html=1;endArrow=halfCircle;endFill=0;endSize=6;strokeWidth=1;sketch=0;exitX=1;exitY=0.5;exitDx=0;exitDy=0;" parent="1" source="HzGM36VPH87erJFW9Gvq-1" target="SsmPXjv05fL6RJQO4NQC-20" edge="1">
          <mxGeometry relative="1" as="geometry">
            <mxPoint x="1240" y="740" as="sourcePoint" />
          </mxGeometry>
        </mxCell>
        <mxCell id="SsmPXjv05fL6RJQO4NQC-19" value="" style="rounded=0;orthogonalLoop=1;jettySize=auto;html=1;endArrow=oval;endFill=0;sketch=0;sourcePerimeterSpacing=0;targetPerimeterSpacing=0;endSize=10;exitX=0;exitY=0.5;exitDx=0;exitDy=0;" parent="1" source="HzGM36VPH87erJFW9Gvq-15" target="SsmPXjv05fL6RJQO4NQC-20" edge="1">
          <mxGeometry relative="1" as="geometry">
            <mxPoint x="1210" y="695" as="sourcePoint" />
          </mxGeometry>
        </mxCell>
        <mxCell id="SsmPXjv05fL6RJQO4NQC-20" value="" style="ellipse;whiteSpace=wrap;html=1;align=center;aspect=fixed;fillColor=none;strokeColor=none;resizable=0;perimeter=centerPerimeter;rotatable=0;allowArrows=0;points=[];outlineConnect=1;" parent="1" vertex="1">
          <mxGeometry x="1250" y="690" width="10" height="10" as="geometry" />
        </mxCell>
        <mxCell id="SsmPXjv05fL6RJQO4NQC-21" value="" style="rounded=0;orthogonalLoop=1;jettySize=auto;html=1;endArrow=halfCircle;endFill=0;endSize=6;strokeWidth=1;sketch=0;exitX=0;exitY=0.5;exitDx=0;exitDy=0;" parent="1" source="HzGM36VPH87erJFW9Gvq-7" target="SsmPXjv05fL6RJQO4NQC-23" edge="1">
          <mxGeometry relative="1" as="geometry">
            <mxPoint x="1250" y="445" as="sourcePoint" />
          </mxGeometry>
        </mxCell>
        <mxCell id="SsmPXjv05fL6RJQO4NQC-22" value="" style="rounded=0;orthogonalLoop=1;jettySize=auto;html=1;endArrow=oval;endFill=0;sketch=0;sourcePerimeterSpacing=0;targetPerimeterSpacing=0;endSize=10;" parent="1" target="SsmPXjv05fL6RJQO4NQC-23" edge="1">
          <mxGeometry relative="1" as="geometry">
            <mxPoint x="1210" y="445" as="sourcePoint" />
          </mxGeometry>
        </mxCell>
        <mxCell id="SsmPXjv05fL6RJQO4NQC-23" value="" style="ellipse;whiteSpace=wrap;html=1;align=center;aspect=fixed;fillColor=none;strokeColor=none;resizable=0;perimeter=centerPerimeter;rotatable=0;allowArrows=0;points=[];outlineConnect=1;" parent="1" vertex="1">
          <mxGeometry x="1250" y="440" width="10" height="10" as="geometry" />
        </mxCell>
        <mxCell id="SsmPXjv05fL6RJQO4NQC-26" value="" style="rounded=0;orthogonalLoop=1;jettySize=auto;html=1;endArrow=halfCircle;endFill=0;endSize=6;strokeWidth=1;sketch=0;exitX=1;exitY=0.5;exitDx=0;exitDy=0;" parent="1" source="HzGM36VPH87erJFW9Gvq-13" target="SsmPXjv05fL6RJQO4NQC-28" edge="1">
          <mxGeometry relative="1" as="geometry">
            <mxPoint x="1070" y="695" as="sourcePoint" />
          </mxGeometry>
        </mxCell>
        <mxCell id="SsmPXjv05fL6RJQO4NQC-27" value="" style="rounded=0;orthogonalLoop=1;jettySize=auto;html=1;endArrow=oval;endFill=0;sketch=0;sourcePerimeterSpacing=0;targetPerimeterSpacing=0;endSize=10;" parent="1" target="SsmPXjv05fL6RJQO4NQC-28" edge="1">
          <mxGeometry relative="1" as="geometry">
            <mxPoint x="1030" y="695" as="sourcePoint" />
          </mxGeometry>
        </mxCell>
        <mxCell id="SsmPXjv05fL6RJQO4NQC-28" value="" style="ellipse;whiteSpace=wrap;html=1;align=center;aspect=fixed;fillColor=none;strokeColor=none;resizable=0;perimeter=centerPerimeter;rotatable=0;allowArrows=0;points=[];outlineConnect=1;" parent="1" vertex="1">
          <mxGeometry x="970" y="690" width="10" height="10" as="geometry" />
        </mxCell>
        <mxCell id="SsmPXjv05fL6RJQO4NQC-29" value="IStockData" style="text;align=center;fontStyle=1;verticalAlign=middle;spacingLeft=3;spacingRight=3;strokeColor=none;rotatable=0;points=[[0,0.5],[1,0.5]];portConstraint=eastwest;html=1;" parent="1" vertex="1">
          <mxGeometry x="1125" y="342" width="80" height="26" as="geometry" />
        </mxCell>
        <mxCell id="SsmPXjv05fL6RJQO4NQC-30" value="&lt;font&gt;IData&lt;/font&gt;" style="text;align=center;fontStyle=1;verticalAlign=middle;spacingLeft=3;spacingRight=3;strokeColor=none;rotatable=0;points=[[0,0.5],[1,0.5]];portConstraint=eastwest;html=1;" parent="1" vertex="1">
          <mxGeometry x="1205" y="260" width="110" height="50" as="geometry" />
        </mxCell>
        <mxCell id="SsmPXjv05fL6RJQO4NQC-32" value="IStockGraph" style="text;align=center;fontStyle=1;verticalAlign=middle;spacingLeft=3;spacingRight=3;strokeColor=none;rotatable=0;points=[[0,0.5],[1,0.5]];portConstraint=eastwest;html=1;" parent="1" vertex="1">
          <mxGeometry x="1210" y="450" width="80" height="26" as="geometry" />
        </mxCell>
        <mxCell id="SsmPXjv05fL6RJQO4NQC-33" value="IStockDisplay" style="text;align=center;fontStyle=1;verticalAlign=middle;spacingLeft=3;spacingRight=3;strokeColor=none;rotatable=0;points=[[0,0.5],[1,0.5]];portConstraint=eastwest;html=1;" parent="1" vertex="1">
          <mxGeometry x="1300" y="602" width="80" height="26" as="geometry" />
        </mxCell>
        <mxCell id="SsmPXjv05fL6RJQO4NQC-34" value="IStockViewer" style="text;align=center;fontStyle=1;verticalAlign=middle;spacingLeft=3;spacingRight=3;strokeColor=none;rotatable=0;points=[[0,0.5],[1,0.5]];portConstraint=eastwest;html=1;" parent="1" vertex="1">
          <mxGeometry x="1215" y="700" width="80" height="26" as="geometry" />
        </mxCell>
        <mxCell id="SsmPXjv05fL6RJQO4NQC-35" value="&lt;span style=&quot;white-space: pre;&quot;&gt;&#x9;&lt;/span&gt;IPortifolio" style="text;align=center;fontStyle=1;verticalAlign=middle;spacingLeft=3;spacingRight=3;strokeColor=none;rotatable=0;points=[[0,0.5],[1,0.5]];portConstraint=eastwest;html=1;" parent="1" vertex="1">
          <mxGeometry x="921" y="704" width="80" height="26" as="geometry" />
        </mxCell>
        <mxCell id="SsmPXjv05fL6RJQO4NQC-36" value="Stock Comparison Session" style="html=1;dropTarget=0;whiteSpace=wrap;" parent="1" vertex="1">
          <mxGeometry x="821" y="520" width="180" height="90" as="geometry" />
        </mxCell>
        <mxCell id="SsmPXjv05fL6RJQO4NQC-37" value="" style="shape=module;jettyWidth=8;jettyHeight=4;" parent="SsmPXjv05fL6RJQO4NQC-36" vertex="1">
          <mxGeometry x="1" width="20" height="20" relative="1" as="geometry">
            <mxPoint x="-27" y="7" as="offset" />
          </mxGeometry>
        </mxCell>
        <mxCell id="SsmPXjv05fL6RJQO4NQC-40" value="Stock Sharks" style="text;align=center;fontStyle=1;verticalAlign=middle;spacingLeft=3;spacingRight=3;strokeColor=none;rotatable=0;points=[[0,0.5],[1,0.5]];portConstraint=eastwest;html=1;" parent="1" vertex="1">
          <mxGeometry x="540" width="130" height="46" as="geometry" />
        </mxCell>
        <mxCell id="SsmPXjv05fL6RJQO4NQC-41" value="Login/Logout" style="html=1;dropTarget=0;whiteSpace=wrap;" parent="1" vertex="1">
          <mxGeometry x="1030" y="820" width="180" height="90" as="geometry" />
        </mxCell>
        <mxCell id="SsmPXjv05fL6RJQO4NQC-42" value="" style="shape=module;jettyWidth=8;jettyHeight=4;" parent="SsmPXjv05fL6RJQO4NQC-41" vertex="1">
          <mxGeometry x="1" width="20" height="20" relative="1" as="geometry">
            <mxPoint x="-27" y="7" as="offset" />
          </mxGeometry>
        </mxCell>
        <mxCell id="SsmPXjv05fL6RJQO4NQC-43" value="AI analyser" style="html=1;dropTarget=0;whiteSpace=wrap;" parent="1" vertex="1">
          <mxGeometry x="1570" y="400" width="180" height="90" as="geometry" />
        </mxCell>
        <mxCell id="SsmPXjv05fL6RJQO4NQC-44" value="" style="shape=module;jettyWidth=8;jettyHeight=4;" parent="SsmPXjv05fL6RJQO4NQC-43" vertex="1">
          <mxGeometry x="1" width="20" height="20" relative="1" as="geometry">
            <mxPoint x="-27" y="7" as="offset" />
          </mxGeometry>
        </mxCell>
        <mxCell id="SsmPXjv05fL6RJQO4NQC-48" value="" style="rounded=0;orthogonalLoop=1;jettySize=auto;html=1;endArrow=halfCircle;endFill=0;endSize=6;strokeWidth=1;sketch=0;exitX=0.5;exitY=1;exitDx=0;exitDy=0;" parent="1" source="HzGM36VPH87erJFW9Gvq-1" target="SsmPXjv05fL6RJQO4NQC-50" edge="1">
          <mxGeometry relative="1" as="geometry">
            <mxPoint x="1355" y="795" as="sourcePoint" />
          </mxGeometry>
        </mxCell>
        <mxCell id="SsmPXjv05fL6RJQO4NQC-49" value="" style="rounded=0;orthogonalLoop=1;jettySize=auto;html=1;endArrow=oval;endFill=0;sketch=0;sourcePerimeterSpacing=0;targetPerimeterSpacing=0;endSize=10;exitX=0.5;exitY=0;exitDx=0;exitDy=0;" parent="1" source="SsmPXjv05fL6RJQO4NQC-41" target="SsmPXjv05fL6RJQO4NQC-50" edge="1">
          <mxGeometry relative="1" as="geometry">
            <mxPoint x="1315" y="795" as="sourcePoint" />
          </mxGeometry>
        </mxCell>
        <mxCell id="SsmPXjv05fL6RJQO4NQC-50" value="" style="ellipse;whiteSpace=wrap;html=1;align=center;aspect=fixed;fillColor=none;strokeColor=none;resizable=0;perimeter=centerPerimeter;rotatable=0;allowArrows=0;points=[];outlineConnect=1;" parent="1" vertex="1">
          <mxGeometry x="1115" y="780" width="10" height="10" as="geometry" />
        </mxCell>
        <mxCell id="k9JoHiYUt8eHDxvozOvi-2" value="" style="rounded=0;orthogonalLoop=1;jettySize=auto;html=1;endArrow=halfCircle;endFill=0;endSize=6;strokeWidth=1;sketch=0;exitX=0;exitY=0.5;exitDx=0;exitDy=0;" edge="1" target="k9JoHiYUt8eHDxvozOvi-4" parent="1" source="HzGM36VPH87erJFW9Gvq-5">
          <mxGeometry relative="1" as="geometry">
            <mxPoint x="1150" y="405" as="sourcePoint" />
          </mxGeometry>
        </mxCell>
        <mxCell id="k9JoHiYUt8eHDxvozOvi-3" value="" style="rounded=0;orthogonalLoop=1;jettySize=auto;html=1;endArrow=oval;endFill=0;sketch=0;sourcePerimeterSpacing=0;targetPerimeterSpacing=0;endSize=10;exitX=1;exitY=0.5;exitDx=0;exitDy=0;" edge="1" target="k9JoHiYUt8eHDxvozOvi-4" parent="1" source="k9JoHiYUt8eHDxvozOvi-10">
          <mxGeometry relative="1" as="geometry">
            <mxPoint x="1110" y="405" as="sourcePoint" />
          </mxGeometry>
        </mxCell>
        <mxCell id="k9JoHiYUt8eHDxvozOvi-4" value="" style="ellipse;whiteSpace=wrap;html=1;align=center;aspect=fixed;fillColor=none;strokeColor=none;resizable=0;perimeter=centerPerimeter;rotatable=0;allowArrows=0;points=[];outlineConnect=1;" vertex="1" parent="1">
          <mxGeometry x="1001" y="430" width="10" height="10" as="geometry" />
        </mxCell>
        <mxCell id="k9JoHiYUt8eHDxvozOvi-5" value="" style="rounded=0;orthogonalLoop=1;jettySize=auto;html=1;endArrow=halfCircle;endFill=0;endSize=6;strokeWidth=1;sketch=0;exitX=0;exitY=0.5;exitDx=0;exitDy=0;" edge="1" target="k9JoHiYUt8eHDxvozOvi-7" parent="1" source="SsmPXjv05fL6RJQO4NQC-43">
          <mxGeometry relative="1" as="geometry">
            <mxPoint x="1520" y="445" as="sourcePoint" />
          </mxGeometry>
        </mxCell>
        <mxCell id="k9JoHiYUt8eHDxvozOvi-6" value="" style="rounded=0;orthogonalLoop=1;jettySize=auto;html=1;endArrow=oval;endFill=0;sketch=0;sourcePerimeterSpacing=0;targetPerimeterSpacing=0;endSize=10;" edge="1" target="k9JoHiYUt8eHDxvozOvi-7" parent="1">
          <mxGeometry relative="1" as="geometry">
            <mxPoint x="1480" y="445" as="sourcePoint" />
          </mxGeometry>
        </mxCell>
        <mxCell id="k9JoHiYUt8eHDxvozOvi-7" value="" style="ellipse;whiteSpace=wrap;html=1;align=center;aspect=fixed;fillColor=none;strokeColor=none;resizable=0;perimeter=centerPerimeter;rotatable=0;allowArrows=0;points=[];outlineConnect=1;" vertex="1" parent="1">
          <mxGeometry x="1520" y="440" width="10" height="10" as="geometry" />
        </mxCell>
        <mxCell id="k9JoHiYUt8eHDxvozOvi-8" value="ILogin" style="text;align=center;fontStyle=1;verticalAlign=middle;spacingLeft=3;spacingRight=3;strokeColor=none;rotatable=0;points=[[0,0.5],[1,0.5]];portConstraint=eastwest;html=1;" vertex="1" parent="1">
          <mxGeometry x="1115" y="772" width="80" height="26" as="geometry" />
        </mxCell>
        <mxCell id="k9JoHiYUt8eHDxvozOvi-9" value="IAI" style="text;align=center;fontStyle=1;verticalAlign=middle;spacingLeft=3;spacingRight=3;strokeColor=none;rotatable=0;points=[[0,0.5],[1,0.5]];portConstraint=eastwest;html=1;" vertex="1" parent="1">
          <mxGeometry x="1485" y="453" width="80" height="26" as="geometry" />
        </mxCell>
        <mxCell id="k9JoHiYUt8eHDxvozOvi-10" value="Notification system" style="html=1;dropTarget=0;whiteSpace=wrap;" vertex="1" parent="1">
          <mxGeometry x="770" y="390" width="180" height="90" as="geometry" />
        </mxCell>
        <mxCell id="k9JoHiYUt8eHDxvozOvi-11" value="" style="shape=module;jettyWidth=8;jettyHeight=4;" vertex="1" parent="k9JoHiYUt8eHDxvozOvi-10">
          <mxGeometry x="1" width="20" height="20" relative="1" as="geometry">
            <mxPoint x="-27" y="7" as="offset" />
          </mxGeometry>
        </mxCell>
        <mxCell id="k9JoHiYUt8eHDxvozOvi-12" value="" style="rounded=0;orthogonalLoop=1;jettySize=auto;html=1;endArrow=halfCircle;endFill=0;endSize=6;strokeWidth=1;sketch=0;exitX=1;exitY=0.5;exitDx=0;exitDy=0;" edge="1" target="k9JoHiYUt8eHDxvozOvi-14" parent="1" source="SsmPXjv05fL6RJQO4NQC-36">
          <mxGeometry relative="1" as="geometry">
            <mxPoint x="1175" y="607" as="sourcePoint" />
          </mxGeometry>
        </mxCell>
        <mxCell id="k9JoHiYUt8eHDxvozOvi-13" value="" style="rounded=0;orthogonalLoop=1;jettySize=auto;html=1;endArrow=oval;endFill=0;sketch=0;sourcePerimeterSpacing=0;targetPerimeterSpacing=0;endSize=10;exitX=0.5;exitY=0;exitDx=0;exitDy=0;" edge="1" target="k9JoHiYUt8eHDxvozOvi-14" parent="1" source="HzGM36VPH87erJFW9Gvq-1">
          <mxGeometry relative="1" as="geometry">
            <mxPoint x="1135" y="607" as="sourcePoint" />
          </mxGeometry>
        </mxCell>
        <mxCell id="k9JoHiYUt8eHDxvozOvi-14" value="" style="ellipse;whiteSpace=wrap;html=1;align=center;aspect=fixed;fillColor=none;strokeColor=none;resizable=0;perimeter=centerPerimeter;rotatable=0;allowArrows=0;points=[];outlineConnect=1;" vertex="1" parent="1">
          <mxGeometry x="1050" y="610" width="10" height="10" as="geometry" />
        </mxCell>
        <mxCell id="k9JoHiYUt8eHDxvozOvi-15" value="" style="rounded=0;orthogonalLoop=1;jettySize=auto;html=1;endArrow=halfCircle;endFill=0;endSize=6;strokeWidth=1;sketch=0;exitX=0.5;exitY=1;exitDx=0;exitDy=0;" edge="1" target="k9JoHiYUt8eHDxvozOvi-17" parent="1" source="k9JoHiYUt8eHDxvozOvi-10">
          <mxGeometry relative="1" as="geometry">
            <mxPoint x="961" y="505" as="sourcePoint" />
          </mxGeometry>
        </mxCell>
        <mxCell id="k9JoHiYUt8eHDxvozOvi-16" value="" style="rounded=0;orthogonalLoop=1;jettySize=auto;html=1;endArrow=oval;endFill=0;sketch=0;sourcePerimeterSpacing=0;targetPerimeterSpacing=0;endSize=10;exitX=0.5;exitY=0;exitDx=0;exitDy=0;" edge="1" target="k9JoHiYUt8eHDxvozOvi-17" parent="1" source="SsmPXjv05fL6RJQO4NQC-36">
          <mxGeometry relative="1" as="geometry">
            <mxPoint x="921" y="505" as="sourcePoint" />
          </mxGeometry>
        </mxCell>
        <mxCell id="k9JoHiYUt8eHDxvozOvi-17" value="" style="ellipse;whiteSpace=wrap;html=1;align=center;aspect=fixed;fillColor=none;strokeColor=none;resizable=0;perimeter=centerPerimeter;rotatable=0;allowArrows=0;points=[];outlineConnect=1;" vertex="1" parent="1">
          <mxGeometry x="905" y="490" width="10" height="10" as="geometry" />
        </mxCell>
        <mxCell id="k9JoHiYUt8eHDxvozOvi-18" value="" style="rounded=0;orthogonalLoop=1;jettySize=auto;html=1;endArrow=halfCircle;endFill=0;endSize=6;strokeWidth=1;sketch=0;exitX=1;exitY=0.5;exitDx=0;exitDy=0;" edge="1" target="k9JoHiYUt8eHDxvozOvi-20" parent="1" source="SsmPXjv05fL6RJQO4NQC-36">
          <mxGeometry relative="1" as="geometry">
            <mxPoint x="1720" y="505" as="sourcePoint" />
          </mxGeometry>
        </mxCell>
        <mxCell id="k9JoHiYUt8eHDxvozOvi-19" value="" style="rounded=0;orthogonalLoop=1;jettySize=auto;html=1;endArrow=oval;endFill=0;sketch=0;sourcePerimeterSpacing=0;targetPerimeterSpacing=0;endSize=10;exitX=0.5;exitY=1;exitDx=0;exitDy=0;" edge="1" target="k9JoHiYUt8eHDxvozOvi-20" parent="1" source="SsmPXjv05fL6RJQO4NQC-43">
          <mxGeometry relative="1" as="geometry">
            <mxPoint x="1680" y="505" as="sourcePoint" />
          </mxGeometry>
        </mxCell>
        <mxCell id="k9JoHiYUt8eHDxvozOvi-20" value="" style="ellipse;whiteSpace=wrap;html=1;align=center;aspect=fixed;fillColor=none;strokeColor=none;resizable=0;perimeter=centerPerimeter;rotatable=0;allowArrows=0;points=[];outlineConnect=1;" vertex="1" parent="1">
          <mxGeometry x="1510" y="540" width="10" height="10" as="geometry" />
        </mxCell>
        <mxCell id="k9JoHiYUt8eHDxvozOvi-26" value="IStockDisplay" style="text;align=center;fontStyle=1;verticalAlign=middle;spacingLeft=3;spacingRight=3;strokeColor=none;rotatable=0;points=[[0,0.5],[1,0.5]];portConstraint=eastwest;html=1;" vertex="1" parent="1">
          <mxGeometry x="1310" y="612" width="80" height="26" as="geometry" />
        </mxCell>
      </root>
    </mxGraphModel>
  </diagram>
</mxfile>
